<mxfile host="app.diagrams.net" modified="2022-01-27T11:33:18.749Z" agent="5.0 (Windows NT 10.0; Win64; x64) AppleWebKit/537.36 (KHTML, like Gecko) Chrome/97.0.4692.99 Safari/537.36" etag="Y_bQChh1cV4UsReXRMOT" version="16.4.7" type="github">
  <diagram id="4UVPahDyf4iu8To8ODbl" name="Page-1">
    <mxGraphModel dx="1106" dy="585" grid="1" gridSize="10" guides="1" tooltips="1" connect="1" arrows="1" fold="1" page="1" pageScale="1" pageWidth="827" pageHeight="1169" math="0" shadow="0">
      <root>
        <mxCell id="0" />
        <mxCell id="1" parent="0" />
        <mxCell id="TSUCbPAbVoKPbsh4vDsl-6" value="" style="edgeStyle=orthogonalEdgeStyle;rounded=0;orthogonalLoop=1;jettySize=auto;html=1;" parent="1" edge="1">
          <mxGeometry relative="1" as="geometry">
            <mxPoint x="422" y="110" as="sourcePoint" />
            <mxPoint x="422" y="140" as="targetPoint" />
          </mxGeometry>
        </mxCell>
        <mxCell id="TSUCbPAbVoKPbsh4vDsl-1" value="File Upload" style="rounded=0;whiteSpace=wrap;html=1;" parent="1" vertex="1">
          <mxGeometry x="360" y="40" width="120" height="70" as="geometry" />
        </mxCell>
        <mxCell id="TSUCbPAbVoKPbsh4vDsl-2" value="Rapport&lt;br&gt;(Contrôle Excel)" style="rounded=0;whiteSpace=wrap;html=1;" parent="1" vertex="1">
          <mxGeometry x="361" y="140" width="120" height="60" as="geometry" />
        </mxCell>
        <mxCell id="TSUCbPAbVoKPbsh4vDsl-3" value="&lt;div&gt;&lt;span&gt;Rapports&lt;/span&gt;&lt;/div&gt;(Analyse +&amp;nbsp;Traitement)&lt;br&gt;&lt;br&gt;+ Excel &quot;ParseResults&quot;" style="rounded=0;whiteSpace=wrap;html=1;align=center;" parent="1" vertex="1">
          <mxGeometry x="260" y="507" width="145" height="80" as="geometry" />
        </mxCell>
        <mxCell id="TSUCbPAbVoKPbsh4vDsl-4" value="&lt;div&gt;&lt;span&gt;Rapports&lt;/span&gt;&lt;/div&gt;&lt;div&gt;&lt;/div&gt;(Analyse +&amp;nbsp;Traitement)&lt;br&gt;&lt;br&gt;+ Excel &quot;ImportResults&quot;" style="rounded=0;whiteSpace=wrap;html=1;align=center;" parent="1" vertex="1">
          <mxGeometry x="460" y="507" width="150" height="80" as="geometry" />
        </mxCell>
        <mxCell id="TSUCbPAbVoKPbsh4vDsl-7" value="Fin 1&lt;br&gt;Rejet" style="ellipse;whiteSpace=wrap;html=1;aspect=fixed;fillColor=#ffe6cc;strokeColor=#d79b00;" parent="1" vertex="1">
          <mxGeometry x="620" y="130" width="80" height="80" as="geometry" />
        </mxCell>
        <mxCell id="TSUCbPAbVoKPbsh4vDsl-9" value="Fichier Invalide" style="endArrow=classic;html=1;rounded=0;entryX=0;entryY=0.5;entryDx=0;entryDy=0;exitX=1;exitY=0.5;exitDx=0;exitDy=0;" parent="1" source="TSUCbPAbVoKPbsh4vDsl-2" target="TSUCbPAbVoKPbsh4vDsl-7" edge="1">
          <mxGeometry relative="1" as="geometry">
            <mxPoint x="490" y="169.5" as="sourcePoint" />
            <mxPoint x="590" y="169.5" as="targetPoint" />
          </mxGeometry>
        </mxCell>
        <mxCell id="TSUCbPAbVoKPbsh4vDsl-19" value="Excel Valide" style="endArrow=classic;html=1;rounded=0;entryX=0.5;entryY=0;entryDx=0;entryDy=0;" parent="1" target="TSUCbPAbVoKPbsh4vDsl-23" edge="1">
          <mxGeometry relative="1" as="geometry">
            <mxPoint x="420" y="200" as="sourcePoint" />
            <mxPoint x="421" y="290" as="targetPoint" />
          </mxGeometry>
        </mxCell>
        <mxCell id="TSUCbPAbVoKPbsh4vDsl-23" value="Option + Lancement du traitement" style="rounded=0;whiteSpace=wrap;html=1;" parent="1" vertex="1">
          <mxGeometry x="360" y="248" width="120" height="60" as="geometry" />
        </mxCell>
        <mxCell id="TSUCbPAbVoKPbsh4vDsl-24" value="&lt;font style=&quot;font-size: 12px&quot;&gt;Traitement 100% OK ?&lt;/font&gt;" style="rhombus;whiteSpace=wrap;html=1;" parent="1" vertex="1">
          <mxGeometry x="380" y="420" width="80" height="80" as="geometry" />
        </mxCell>
        <mxCell id="TSUCbPAbVoKPbsh4vDsl-26" value="Traitement en cours (attente)" style="rounded=0;whiteSpace=wrap;html=1;" parent="1" vertex="1">
          <mxGeometry x="360" y="340" width="120" height="60" as="geometry" />
        </mxCell>
        <mxCell id="TSUCbPAbVoKPbsh4vDsl-27" value="" style="endArrow=classic;html=1;rounded=0;entryX=0.5;entryY=0;entryDx=0;entryDy=0;exitX=0.5;exitY=1;exitDx=0;exitDy=0;" parent="1" source="TSUCbPAbVoKPbsh4vDsl-23" target="TSUCbPAbVoKPbsh4vDsl-26" edge="1">
          <mxGeometry width="50" height="50" relative="1" as="geometry">
            <mxPoint x="390" y="300" as="sourcePoint" />
            <mxPoint x="440" y="250" as="targetPoint" />
          </mxGeometry>
        </mxCell>
        <mxCell id="TSUCbPAbVoKPbsh4vDsl-30" value="Fin 3&lt;br&gt;Succès" style="ellipse;whiteSpace=wrap;html=1;aspect=fixed;fillColor=#ffe6cc;strokeColor=#d79b00;" parent="1" vertex="1">
          <mxGeometry x="643" y="507" width="80" height="80" as="geometry" />
        </mxCell>
        <mxCell id="TSUCbPAbVoKPbsh4vDsl-31" value="Fin 2&lt;br&gt;Erreur" style="ellipse;whiteSpace=wrap;html=1;aspect=fixed;fillColor=#ffe6cc;strokeColor=#d79b00;" parent="1" vertex="1">
          <mxGeometry x="113" y="507" width="80" height="80" as="geometry" />
        </mxCell>
        <mxCell id="TSUCbPAbVoKPbsh4vDsl-33" value="" style="endArrow=classic;html=1;rounded=0;exitX=1;exitY=0.5;exitDx=0;exitDy=0;" parent="1" source="TSUCbPAbVoKPbsh4vDsl-4" edge="1">
          <mxGeometry width="50" height="50" relative="1" as="geometry">
            <mxPoint x="633" y="477" as="sourcePoint" />
            <mxPoint x="640" y="547" as="targetPoint" />
          </mxGeometry>
        </mxCell>
        <mxCell id="TSUCbPAbVoKPbsh4vDsl-34" value="" style="endArrow=classic;html=1;rounded=0;exitX=0.5;exitY=1;exitDx=0;exitDy=0;entryX=0.5;entryY=0;entryDx=0;entryDy=0;" parent="1" source="TSUCbPAbVoKPbsh4vDsl-26" target="TSUCbPAbVoKPbsh4vDsl-24" edge="1">
          <mxGeometry width="50" height="50" relative="1" as="geometry">
            <mxPoint x="140" y="440" as="sourcePoint" />
            <mxPoint x="190" y="390" as="targetPoint" />
          </mxGeometry>
        </mxCell>
        <mxCell id="TSUCbPAbVoKPbsh4vDsl-35" value="" style="endArrow=classic;html=1;rounded=0;exitX=0;exitY=0.5;exitDx=0;exitDy=0;entryX=1;entryY=0.5;entryDx=0;entryDy=0;" parent="1" source="TSUCbPAbVoKPbsh4vDsl-3" target="TSUCbPAbVoKPbsh4vDsl-31" edge="1">
          <mxGeometry width="50" height="50" relative="1" as="geometry">
            <mxPoint x="403" y="377" as="sourcePoint" />
            <mxPoint x="453" y="327" as="targetPoint" />
          </mxGeometry>
        </mxCell>
        <mxCell id="TSUCbPAbVoKPbsh4vDsl-36" value="" style="endArrow=classic;html=1;rounded=0;strokeColor=#006600;" parent="1" edge="1">
          <mxGeometry relative="1" as="geometry">
            <mxPoint x="460" y="460" as="sourcePoint" />
            <mxPoint x="505" y="500" as="targetPoint" />
            <Array as="points">
              <mxPoint x="490" y="460" />
              <mxPoint x="505" y="460" />
            </Array>
          </mxGeometry>
        </mxCell>
        <mxCell id="TSUCbPAbVoKPbsh4vDsl-37" value="OUI ✅" style="edgeLabel;resizable=0;html=1;align=center;verticalAlign=middle;fontColor=#006600;" parent="TSUCbPAbVoKPbsh4vDsl-36" connectable="0" vertex="1">
          <mxGeometry relative="1" as="geometry">
            <mxPoint x="-22" y="-13" as="offset" />
          </mxGeometry>
        </mxCell>
        <mxCell id="TSUCbPAbVoKPbsh4vDsl-45" value="" style="endArrow=classic;html=1;rounded=0;exitX=0;exitY=0.5;exitDx=0;exitDy=0;strokeColor=#CC0000;" parent="1" source="TSUCbPAbVoKPbsh4vDsl-24" edge="1">
          <mxGeometry relative="1" as="geometry">
            <mxPoint x="360" y="360" as="sourcePoint" />
            <mxPoint x="336" y="500" as="targetPoint" />
            <Array as="points">
              <mxPoint x="336" y="460" />
            </Array>
          </mxGeometry>
        </mxCell>
        <mxCell id="TSUCbPAbVoKPbsh4vDsl-46" value="NON❌" style="edgeLabel;resizable=0;html=1;align=center;verticalAlign=middle;fontColor=#CC0000;" parent="TSUCbPAbVoKPbsh4vDsl-45" connectable="0" vertex="1">
          <mxGeometry relative="1" as="geometry">
            <mxPoint x="21" y="-13" as="offset" />
          </mxGeometry>
        </mxCell>
      </root>
    </mxGraphModel>
  </diagram>
</mxfile>
